<svg width="20" height="24" viewBox="0 0 20 24" fill="none" xmlns="http://www.w3.org/2000/svg">
<path d="M12.2664 20.14C11.9183 21.0523 11.6908 22.0441 11.6016 23.0837L18.9368 21.2273C19.2848 20.3151 19.5123 19.3232 19.6016 18.2837L12.2664 20.14Z" fill="black"/>
<path d="M18.9414 16.7227C19.2853 15.9277 19.5102 15.0633 19.5984 14.1574L13.9496 15.4146V12.9926L18.9414 11.8786C19.2853 11.0836 19.5102 10.2192 19.5984 9.31328L13.9496 10.5705V1.86688C13.0853 2.37533 12.3136 3.05479 11.6918 3.85444V11.0744L9.43399 11.5782V0.683594C8.56968 1.19204 7.79798 1.8715 7.17621 2.67115V12.082L2.12265 13.2098C1.77869 14.0048 1.55379 14.8692 1.46559 15.7751L7.17621 14.504V17.5547L1.05549 18.9183C0.71153 19.7133 0.486632 20.5776 0.398437 21.4836L6.80579 20.0553C7.32614 19.9398 7.77593 19.6162 8.06697 19.1725L9.23996 17.3467C9.36344 17.1572 9.43399 16.9307 9.43399 16.6857V14.0002L11.6918 13.4964V18.3359L18.9414 16.7181V16.7227Z" fill="black"/>
</svg>
